<?xml version="1.0" ?>
<mxfile host="app.diagrams.net">
  <diagram name="UML Diagram">
    <mxGraphModel>
      <root>
        <mxCell id="0"/>
        <mxCell id="1" parent="0"/>
        <mxCell id="1000" value="TilesetFactory" style="rounded=1;whiteSpace=wrap;html=1;fillColor=#dae8fc;strokeColor=#6c8ebf" vertex="1" parent="1">
          <mxGeometry x="50" y="50" width="160" height="50" as="geometry"/>
        </mxCell>
        <mxCell id="1001" value="DecorManager" style="rounded=1;whiteSpace=wrap;html=1;fillColor=#dae8fc;strokeColor=#6c8ebf" vertex="1" parent="1">
          <mxGeometry x="230" y="50" width="160" height="50" as="geometry"/>
        </mxCell>
        <mxCell id="1002" value="Actor" style="rounded=1;whiteSpace=wrap;html=1;fillColor=#dae8fc;strokeColor=#6c8ebf" vertex="1" parent="1">
          <mxGeometry x="410" y="50" width="160" height="50" as="geometry"/>
        </mxCell>
        <mxCell id="1003" value="TiledMapLoader" style="rounded=1;whiteSpace=wrap;html=1;fillColor=#dae8fc;strokeColor=#6c8ebf" vertex="1" parent="1">
          <mxGeometry x="590" y="50" width="160" height="50" as="geometry"/>
        </mxCell>
        <mxCell id="1004" value="UtilityTool" style="rounded=1;whiteSpace=wrap;html=1;fillColor=#dae8fc;strokeColor=#6c8ebf" vertex="1" parent="1">
          <mxGeometry x="770" y="50" width="160" height="50" as="geometry"/>
        </mxCell>
        <mxCell id="1005" value="GamePanel" style="rounded=1;whiteSpace=wrap;html=1;fillColor=#dae8fc;strokeColor=#6c8ebf" vertex="1" parent="1">
          <mxGeometry x="950" y="50" width="160" height="50" as="geometry"/>
        </mxCell>
        <mxCell id="1006" value="DecorAssetLoader" style="rounded=1;whiteSpace=wrap;html=1;fillColor=#dae8fc;strokeColor=#6c8ebf" vertex="1" parent="1">
          <mxGeometry x="50" y="150" width="160" height="50" as="geometry"/>
        </mxCell>
        <mxCell id="1007" value="WorldEntity" style="rounded=1;whiteSpace=wrap;html=1;fillColor=#dae8fc;strokeColor=#6c8ebf" vertex="1" parent="1">
          <mxGeometry x="230" y="150" width="160" height="50" as="geometry"/>
        </mxCell>
        <mxCell id="1008" value="Main" style="rounded=1;whiteSpace=wrap;html=1;fillColor=#dae8fc;strokeColor=#6c8ebf" vertex="1" parent="1">
          <mxGeometry x="410" y="150" width="160" height="50" as="geometry"/>
        </mxCell>
        <mxCell id="1009" value="TileManager" style="rounded=1;whiteSpace=wrap;html=1;fillColor=#dae8fc;strokeColor=#6c8ebf" vertex="1" parent="1">
          <mxGeometry x="590" y="150" width="160" height="50" as="geometry"/>
        </mxCell>
        <mxCell id="1010" value="Constants" style="rounded=1;whiteSpace=wrap;html=1;fillColor=#dae8fc;strokeColor=#6c8ebf" vertex="1" parent="1">
          <mxGeometry x="770" y="150" width="160" height="50" as="geometry"/>
        </mxCell>
        <mxCell id="1011" value="MouseHandler" style="rounded=1;whiteSpace=wrap;html=1;fillColor=#dae8fc;strokeColor=#6c8ebf" vertex="1" parent="1">
          <mxGeometry x="950" y="150" width="160" height="50" as="geometry"/>
        </mxCell>
        <mxCell id="1012" value="Decor" style="rounded=1;whiteSpace=wrap;html=1;fillColor=#dae8fc;strokeColor=#6c8ebf" vertex="1" parent="1">
          <mxGeometry x="50" y="250" width="160" height="50" as="geometry"/>
        </mxCell>
        <mxCell id="1013" value="Tileset" style="rounded=1;whiteSpace=wrap;html=1;fillColor=#dae8fc;strokeColor=#6c8ebf" vertex="1" parent="1">
          <mxGeometry x="230" y="250" width="160" height="50" as="geometry"/>
        </mxCell>
        <mxCell id="1014" value="KeyHandler" style="rounded=1;whiteSpace=wrap;html=1;fillColor=#dae8fc;strokeColor=#6c8ebf" vertex="1" parent="1">
          <mxGeometry x="410" y="250" width="160" height="50" as="geometry"/>
        </mxCell>
        <mxCell id="1015" value="Tile" style="rounded=1;whiteSpace=wrap;html=1;fillColor=#dae8fc;strokeColor=#6c8ebf" vertex="1" parent="1">
          <mxGeometry x="590" y="250" width="160" height="50" as="geometry"/>
        </mxCell>
        <mxCell id="1016" value="State" style="rounded=1;whiteSpace=wrap;html=1;fillColor=#dae8fc;strokeColor=#6c8ebf" vertex="1" parent="1">
          <mxGeometry x="770" y="250" width="160" height="50" as="geometry"/>
        </mxCell>
        <mxCell id="1017" value="Playing" style="rounded=1;whiteSpace=wrap;html=1;fillColor=#dae8fc;strokeColor=#6c8ebf" vertex="1" parent="1">
          <mxGeometry x="950" y="250" width="160" height="50" as="geometry"/>
        </mxCell>
        <mxCell id="1018" value="Statemethods" style="rounded=1;whiteSpace=wrap;html=1;fillColor=#dae8fc;strokeColor=#6c8ebf" vertex="1" parent="1">
          <mxGeometry x="50" y="350" width="160" height="50" as="geometry"/>
        </mxCell>
        <mxCell id="1019" value="Gamestate" style="rounded=1;whiteSpace=wrap;html=1;fillColor=#dae8fc;strokeColor=#6c8ebf" vertex="1" parent="1">
          <mxGeometry x="230" y="350" width="160" height="50" as="geometry"/>
        </mxCell>
        <mxCell id="1020" value="Player" style="rounded=1;whiteSpace=wrap;html=1;fillColor=#dae8fc;strokeColor=#6c8ebf" vertex="1" parent="1">
          <mxGeometry x="410" y="350" width="160" height="50" as="geometry"/>
        </mxCell>
        <mxCell id="2000" value="extends" style="endArrow=block;html=1;strokeColor=#000000" edge="1" parent="1" source="1007" target="1012">
          <mxGeometry relative="1" as="geometry"/>
        </mxCell>
        <mxCell id="2001" value="extends" style="endArrow=block;html=1;strokeColor=#000000" edge="1" parent="1" source="1016" target="1017">
          <mxGeometry relative="1" as="geometry"/>
        </mxCell>
        <mxCell id="2002" value="implements" style="endArrow=block;html=1;strokeColor=#000000" edge="1" parent="1" source="1018" target="1017">
          <mxGeometry relative="1" as="geometry"/>
        </mxCell>
        <mxCell id="2003" value="uses" style="endArrow=block;html=1;strokeColor=#000000" edge="1" parent="1" source="1005" target="1001">
          <mxGeometry relative="1" as="geometry"/>
        </mxCell>
        <mxCell id="2004" value="uses" style="endArrow=block;html=1;strokeColor=#000000" edge="1" parent="1" source="1005" target="1020">
          <mxGeometry relative="1" as="geometry"/>
        </mxCell>
        <mxCell id="2005" value="uses" style="endArrow=block;html=1;strokeColor=#000000" edge="1" parent="1" source="1005" target="1017">
          <mxGeometry relative="1" as="geometry"/>
        </mxCell>
        <mxCell id="2006" value="uses" style="endArrow=block;html=1;strokeColor=#000000" edge="1" parent="1" source="1005" target="1009">
          <mxGeometry relative="1" as="geometry"/>
        </mxCell>
        <mxCell id="2007" value="uses" style="endArrow=block;html=1;strokeColor=#000000" edge="1" parent="1" source="1005" target="1004">
          <mxGeometry relative="1" as="geometry"/>
        </mxCell>
        <mxCell id="2008" value="uses" style="endArrow=block;html=1;strokeColor=#000000" edge="1" parent="1" source="1003" target="1009">
          <mxGeometry relative="1" as="geometry"/>
        </mxCell>
        <mxCell id="2009" value="uses" style="endArrow=block;html=1;strokeColor=#000000" edge="1" parent="1" source="1003" target="1001">
          <mxGeometry relative="1" as="geometry"/>
        </mxCell>
        <mxCell id="2010" value="uses" style="endArrow=block;html=1;strokeColor=#000000" edge="1" parent="1" source="1009" target="1015">
          <mxGeometry relative="1" as="geometry"/>
        </mxCell>
        <mxCell id="2011" value="uses" style="endArrow=block;html=1;strokeColor=#000000" edge="1" parent="1" source="1017" target="1020">
          <mxGeometry relative="1" as="geometry"/>
        </mxCell>
        <mxCell id="2012" value="uses" style="endArrow=block;html=1;strokeColor=#000000" edge="1" parent="1" source="1017" target="1001">
          <mxGeometry relative="1" as="geometry"/>
        </mxCell>
        <mxCell id="2013" value="uses" style="endArrow=block;html=1;strokeColor=#000000" edge="1" parent="1" source="1017" target="1009">
          <mxGeometry relative="1" as="geometry"/>
        </mxCell>
        <mxCell id="2014" value="uses" style="endArrow=block;html=1;strokeColor=#000000" edge="1" parent="1" source="1020" target="1005">
          <mxGeometry relative="1" as="geometry"/>
        </mxCell>
      </root>
    </mxGraphModel>
  </diagram>
</mxfile>
